REM DIRINDEX 1\2\3,1\2\4,1\2\5,1\2\6
REM DIRNAME folder01,folder02,folder03,folder04,folder05,folder06
TITLE ""
FILE "121 121.mp3" MP3
  TRACK 01 AUDIO
    TITLE "0:"
    INDEX 01 00:00:00
  TRACK 02 AUDIO
    TITLE "3:cjc157_4509"
    INDEX 01 00:00:11
  TRACK 03 AUDIO
    TITLE "0:"
    INDEX 01 00:01:38
  TRACK 04 AUDIO
    TITLE "4:cjc157_4510"
    INDEX 01 00:02:08
  TRACK 05 AUDIO
    TITLE "0:"
    INDEX 01 00:03:12
  TRACK 06 AUDIO
    TITLE "5:cjc157_4511"
    INDEX 01 00:03:59
  TRACK 07 AUDIO
    TITLE "0:"
    INDEX 01 00:05:46
  TRACK 08 AUDIO
    TITLE "5:cjc157_4512"
    INDEX 01 00:06:14
  TRACK 09 AUDIO
    TITLE "0:"
    INDEX 01 00:09:42
  TRACK 10 AUDIO
    TITLE "3:cjc157_4513"
    INDEX 01 00:10:10
  TRACK 11 AUDIO
    TITLE "0:"
    INDEX 01 00:11:35
  TRACK 12 AUDIO
    TITLE "4:cjc157_4514"
    INDEX 01 00:12:12
  TRACK 13 AUDIO
    TITLE "0:"
    INDEX 01 00:13:18
  TRACK 14 AUDIO
    TITLE "5:cjc157_4515"
    INDEX 01 00:13:61
  TRACK 15 AUDIO
    TITLE "0:"
    INDEX 01 00:15:52
  TRACK 16 AUDIO
    TITLE "5:cjc157_4516"
    INDEX 01 00:16:24
  TRACK 17 AUDIO
    TITLE "0:"
    INDEX 01 00:18:05
  TRACK 18 AUDIO
    TITLE "3:cjc157_4517"
    INDEX 01 00:18:50
  TRACK 19 AUDIO
    TITLE "0:"
    INDEX 01 00:20:10
  TRACK 20 AUDIO
    TITLE "4:cjc157_4518"
    INDEX 01 00:20:55
  TRACK 21 AUDIO
    TITLE "0:"
    INDEX 01 00:22:07
  TRACK 22 AUDIO
    TITLE "5:cjc157_4519"
    INDEX 01 00:22:52
  TRACK 23 AUDIO
    TITLE "0:"
    INDEX 01 00:24:51
  TRACK 24 AUDIO
    TITLE "5:cjc157_4520"
    INDEX 01 00:25:25
  TRACK 25 AUDIO
    TITLE "0:"
    INDEX 01 00:28:45
  TRACK 26 AUDIO
    TITLE "3:cjc157_4521"
    INDEX 01 00:29:17
  TRACK 27 AUDIO
    TITLE "0:"
    INDEX 01 00:30:63
  TRACK 28 AUDIO
    TITLE "4:cjc157_4522"
    INDEX 01 00:31:33
  TRACK 29 AUDIO
    TITLE "0:"
    INDEX 01 00:32:50
  TRACK 30 AUDIO
    TITLE "5:cjc157_4523"
    INDEX 01 00:33:17
  TRACK 31 AUDIO
    TITLE "0:"
    INDEX 01 00:35:31
  TRACK 32 AUDIO
    TITLE "5:cjc157_4524"
    INDEX 01 00:36:01
  TRACK 33 AUDIO
    TITLE "0:"
    INDEX 01 00:38:69
  TRACK 34 AUDIO
    TITLE "5:cjc157_4525"
    INDEX 01 00:39:33
  TRACK 35 AUDIO
    TITLE "0:"
    INDEX 01 00:41:02
  TRACK 36 AUDIO
    TITLE "3:cjc157_4526"
    INDEX 01 00:41:44
  TRACK 37 AUDIO
    TITLE "0:"
    INDEX 01 00:43:05
  TRACK 38 AUDIO
    TITLE "4:cjc157_4527"
    INDEX 01 00:43:52
  TRACK 39 AUDIO
    TITLE "0:"
    INDEX 01 00:44:63
  TRACK 40 AUDIO
    TITLE "5:cjc157_4528"
    INDEX 01 00:45:35
  TRACK 41 AUDIO
    TITLE "0:"
    INDEX 01 00:47:58
  TRACK 42 AUDIO
    TITLE "5:cjc157_4529"
    INDEX 01 00:48:28
  TRACK 43 AUDIO
    TITLE "0:"
    INDEX 01 00:50:64
  TRACK 44 AUDIO
    TITLE "5:cjc157_4530"
    INDEX 01 00:51:42
  TRACK 45 AUDIO
    TITLE "0:"
    INDEX 01 00:53:43
  TRACK 46 AUDIO
    TITLE "3:cjc157_4531"
    INDEX 01 00:54:19
  TRACK 47 AUDIO
    TITLE "0:"
    INDEX 01 00:55:53
  TRACK 48 AUDIO
    TITLE "4:cjc157_4532"
    INDEX 01 00:56:24
  TRACK 49 AUDIO
    TITLE "0:"
    INDEX 01 00:57:50
  TRACK 50 AUDIO
    TITLE "5:cjc157_4533"
    INDEX 01 00:58:22
  TRACK 51 AUDIO
    TITLE "0:"
    INDEX 01 01:00:45
  TRACK 52 AUDIO
    TITLE "3:cjc157_4534"
    INDEX 01 01:01:17
  TRACK 53 AUDIO
    TITLE "0:"
    INDEX 01 01:02:32
  TRACK 54 AUDIO
    TITLE "4:cjc157_4535"
    INDEX 01 01:02:73
  TRACK 55 AUDIO
    TITLE "0:"
    INDEX 01 01:04:00
  TRACK 56 AUDIO
    TITLE "5:cjc157_4536"
    INDEX 01 01:04:47
  TRACK 57 AUDIO
    TITLE "0:"
    INDEX 01 01:07:43
  TRACK 58 AUDIO
    TITLE "5:cjc157_4537"
    INDEX 01 01:08:15
  TRACK 59 AUDIO
    TITLE "0:"
    INDEX 01 01:09:59
  TRACK 60 AUDIO
    TITLE "3:cjc157_4538"
    INDEX 01 01:10:30
  TRACK 61 AUDIO
    TITLE "0:"
    INDEX 01 01:11:51
  TRACK 62 AUDIO
    TITLE "4:cjc157_4539"
    INDEX 01 01:12:21
  TRACK 63 AUDIO
    TITLE "0:"
    INDEX 01 01:13:26
  TRACK 64 AUDIO
    TITLE "5:cjc157_4540"
    INDEX 01 01:14:02
  TRACK 65 AUDIO
    TITLE "0:"
    INDEX 01 01:15:40
  TRACK 66 AUDIO
    TITLE "5:cjc157_4541"
    INDEX 01 01:16:20
  TRACK 67 AUDIO
    TITLE "0:"
    INDEX 01 01:18:15
  TRACK 68 AUDIO
    TITLE "3:cjc157_4542"
    INDEX 01 01:18:56
  TRACK 69 AUDIO
    TITLE "0:"
    INDEX 01 01:20:22
  TRACK 70 AUDIO
    TITLE "4:cjc157_4543"
    INDEX 01 01:20:69
  TRACK 71 AUDIO
    TITLE "0:"
    INDEX 01 01:21:69
  TRACK 72 AUDIO
    TITLE "5:cjc157_4544"
    INDEX 01 01:22:44
  TRACK 73 AUDIO
    TITLE "0:"
    INDEX 01 01:24:55
  TRACK 74 AUDIO
    TITLE "5:cjc157_4545"
    INDEX 01 01:25:29
  TRACK 75 AUDIO
    TITLE "0:"
    INDEX 01 01:28:22
  TRACK 76 AUDIO
    TITLE "3:cjc157_4546"
    INDEX 01 01:28:72
  TRACK 77 AUDIO
    TITLE "0:"
    INDEX 01 01:30:03
  TRACK 78 AUDIO
    TITLE "4:cjc157_4547"
    INDEX 01 01:30:46
  TRACK 79 AUDIO
    TITLE "0:"
    INDEX 01 01:31:49
  TRACK 80 AUDIO
    TITLE "5:cjc157_4548"
    INDEX 01 01:32:23
  TRACK 81 AUDIO
    TITLE "0:"
    INDEX 01 01:34:46
  TRACK 82 AUDIO
    TITLE "5:cjc157_4549"
    INDEX 01 01:35:16
  TRACK 83 AUDIO
    TITLE "0:"
    INDEX 01 01:36:62
